<svg width="1200" height="900" viewBox="0 0 1200 900" fill="none" xmlns="http://www.w3.org/2000/svg">
  <rect width="1200" height="900" rx="72" fill="url(#paint0_linear)"/>
  <circle cx="958" cy="168" r="154" fill="white" fill-opacity="0.42"/>
  <circle cx="203" cy="721" r="188" fill="white" fill-opacity="0.32"/>
  <rect x="264" y="190" width="672" height="520" rx="58" fill="white" fill-opacity="0.86"/>
  <rect x="309" y="235" width="582" height="430" rx="44" fill="#111827"/>
  <path d="M600 593C590.9 584.8 564.4 560.7 532.1 531.5C483.6 487.8 439 447.8 439 389.4C439 340.7 477.2 302 525.3 302C552.5 302 578.7 314.7 595.7 335C612.7 314.7 638.9 302 666.1 302C714.2 302 752.4 340.7 752.4 389.4C752.4 447.8 707.8 487.8 659.3 531.6C627.6 560.3 609.1 584.8 600 593Z" fill="url(#paint1_linear)"/>
  <circle cx="442" cy="612" r="26" fill="#F97316" fill-opacity="0.9"/>
  <circle cx="758" cy="288" r="20" fill="#38BDF8" fill-opacity="0.9"/>
  <circle cx="797" cy="616" r="13" fill="#22C55E" fill-opacity="0.9"/>
  <text x="600" y="168" text-anchor="middle" font-family="-apple-system, BlinkMacSystemFont, Segoe UI, Arial, sans-serif" font-size="42" font-weight="800" fill="#111827">RAMX</text>
  <text x="600" y="744" text-anchor="middle" font-family="-apple-system, BlinkMacSystemFont, Segoe UI, Arial, sans-serif" font-size="34" font-weight="800" fill="#111827">Donación con propósito</text>
  <text x="600" y="796" text-anchor="middle" font-family="-apple-system, BlinkMacSystemFont, Segoe UI, Arial, sans-serif" font-size="22" font-weight="500" fill="#475569">Ayuda a que más mascotas vuelvan a casa</text>
  <defs>
    <linearGradient id="paint0_linear" x1="70" y1="70" x2="1109" y2="839" gradientUnits="userSpaceOnUse">
      <stop stop-color="#FFF7ED"/>
      <stop offset="0.44" stop-color="#E0F2FE"/>
      <stop offset="1" stop-color="#DCFCE7"/>
    </linearGradient>
    <linearGradient id="paint1_linear" x1="439" y1="302" x2="753" y2="593" gradientUnits="userSpaceOnUse">
      <stop stop-color="#F97316"/>
      <stop offset="0.5" stop-color="#EF4444"/>
      <stop offset="1" stop-color="#38BDF8"/>
    </linearGradient>
  </defs>
</svg>
