<svg width="900" height="700" viewBox="0 0 900 700" fill="none" xmlns="http://www.w3.org/2000/svg">
  <rect width="900" height="700" rx="72" fill="url(#bg)"/>
  <circle cx="730" cy="155" r="132" fill="#FDBA74" fill-opacity="0.5"/>
  <circle cx="190" cy="560" r="160" fill="#BFDBFE" fill-opacity="0.7"/>
  <g filter="url(#shadow)">
    <rect x="185" y="140" width="310" height="405" rx="78" fill="#111827"/>
    <circle cx="340" cy="198" r="32" fill="#F8FAFC"/>
    <rect x="236" y="270" width="208" height="208" rx="24" fill="#FFFFFF"/>
    <rect x="262" y="296" width="48" height="48" rx="7" fill="#111827"/>
    <rect x="370" y="296" width="48" height="48" rx="7" fill="#111827"/>
    <rect x="262" y="404" width="48" height="48" rx="7" fill="#111827"/>
    <rect x="324" y="298" width="22" height="22" rx="5" fill="#111827"/>
    <rect x="326" y="356" width="40" height="24" rx="5" fill="#111827"/>
    <rect x="386" y="370" width="32" height="82" rx="5" fill="#111827"/>
    <rect x="324" y="424" width="42" height="28" rx="5" fill="#111827"/>
    <path d="M280 240C312 222 368 222 400 240" stroke="#FDBA74" stroke-width="13" stroke-linecap="round"/>
  </g>
  <g filter="url(#shadow2)">
    <rect x="510" y="228" width="230" height="244" rx="42" fill="#FFFFFF"/>
    <rect x="542" y="267" width="166" height="32" rx="16" fill="#E5E7EB"/>
    <rect x="552" y="328" width="146" height="72" rx="26" fill="#111827"/>
    <path d="M580 350H670M580 378H670" stroke="#FDBA74" stroke-width="12" stroke-linecap="round"/>
    <text x="625" y="438" text-anchor="middle" font-family="Arial, Helvetica, sans-serif" font-size="24" font-weight="800" fill="#111827">MICROCHIP</text>
  </g>
  <rect x="68" y="70" width="250" height="58" rx="29" fill="#FFFFFF" fill-opacity="0.84"/>
  <text x="193" y="106" text-anchor="middle" font-family="Arial, Helvetica, sans-serif" font-size="21" font-weight="700" fill="#111827">Identificación RAMX</text>
  <defs>
    <linearGradient id="bg" x1="0" y1="0" x2="900" y2="700" gradientUnits="userSpaceOnUse">
      <stop stop-color="#FFF7ED"/>
      <stop offset="0.52" stop-color="#EFF6FF"/>
      <stop offset="1" stop-color="#F8FAFC"/>
    </linearGradient>
    <filter id="shadow" x="120" y="90" width="440" height="535" filterUnits="userSpaceOnUse" color-interpolation-filters="sRGB">
      <feDropShadow dx="0" dy="34" stdDeviation="30" flood-color="#0F172A" flood-opacity="0.2"/>
    </filter>
    <filter id="shadow2" x="450" y="190" width="350" height="360" filterUnits="userSpaceOnUse" color-interpolation-filters="sRGB">
      <feDropShadow dx="0" dy="26" stdDeviation="28" flood-color="#0F172A" flood-opacity="0.16"/>
    </filter>
  </defs>
</svg>
